TITLE ""
FILE "Step1_Track03.mp3" MP3
  TRACK 01 AUDIO
    TITLE "Step1_Track03_01"
    INDEX 01 00:00:00
  TRACK 02 AUDIO
    TITLE "Step1_Track03_02"
    INDEX 01 00:00:24
  TRACK 03 AUDIO
    TITLE "Step1_Track03_03"
    INDEX 01 00:01:63
  TRACK 04 AUDIO
    TITLE "Step1_Track03_04"
    INDEX 01 00:02:39
  TRACK 05 AUDIO
    TITLE "Step1_Track03_05"
    INDEX 01 00:03:32
  TRACK 06 AUDIO
    TITLE "Step1_Track03_06"
    INDEX 01 00:03:46
  TRACK 07 AUDIO
    TITLE "Step1_Track03_07"
    INDEX 01 00:06:23
  TRACK 08 AUDIO
    TITLE "Step1_Track03_08"
    INDEX 01 00:06:58
  TRACK 09 AUDIO
    TITLE "Step1_Track03_09"
    INDEX 01 00:07:53
  TRACK 10 AUDIO
    TITLE "Step1_Track03_10"
    INDEX 01 00:07:61
  TRACK 11 AUDIO
    TITLE "Step1_Track03_11"
    INDEX 01 00:10:54
  TRACK 12 AUDIO
    TITLE "Step1_Track03_12"
    INDEX 01 00:11:02
  TRACK 13 AUDIO
    TITLE "Step1_Track03_13"
    INDEX 01 00:12:02
  TRACK 14 AUDIO
    TITLE "Step1_Track03_14"
    INDEX 01 00:12:15
  TRACK 15 AUDIO
    TITLE "Step1_Track03_15"
    INDEX 01 00:14:32
  TRACK 16 AUDIO
    TITLE "Step1_Track03_16"
    INDEX 01 00:14:63
  TRACK 17 AUDIO
    TITLE "Step1_Track03_17"
    INDEX 01 00:15:61
  TRACK 18 AUDIO
    TITLE "Step1_Track03_18"
    INDEX 01 00:15:73
  TRACK 19 AUDIO
    TITLE "Step1_Track03_19"
    INDEX 01 00:18:45
  TRACK 20 AUDIO
    TITLE "Step1_Track03_20"
    INDEX 01 00:19:02
  TRACK 21 AUDIO
    TITLE "Step1_Track03_21"
    INDEX 01 00:20:05
  TRACK 22 AUDIO
    TITLE "Step1_Track03_22"
    INDEX 01 00:20:23
  TRACK 23 AUDIO
    TITLE "Step1_Track03_23"
    INDEX 01 00:22:37
  TRACK 24 AUDIO
    TITLE "Step1_Track03_24"
    INDEX 01 00:22:71
  TRACK 25 AUDIO
    TITLE "Step1_Track03_25"
    INDEX 01 00:23:74
  TRACK 26 AUDIO
    TITLE "Step1_Track03_26"
    INDEX 01 00:24:21
  TRACK 27 AUDIO
    TITLE "Step1_Track03_27"
    INDEX 01 00:26:37
  TRACK 28 AUDIO
    TITLE "Step1_Track03_28"
    INDEX 01 00:26:66
  TRACK 29 AUDIO
    TITLE "Step1_Track03_29"
    INDEX 01 00:27:64
  TRACK 30 AUDIO
    TITLE "Step1_Track03_30"
    INDEX 01 00:28:13
  TRACK 31 AUDIO
    TITLE "Step1_Track03_31"
    INDEX 01 00:30:72
  TRACK 32 AUDIO
    TITLE "Step1_Track03_32"
    INDEX 01 00:31:30
  TRACK 33 AUDIO
    TITLE "Step1_Track03_33"
    INDEX 01 00:32:20
  TRACK 34 AUDIO
    TITLE "Step1_Track03_34"
    INDEX 01 00:32:44
  TRACK 35 AUDIO
    TITLE "Step1_Track03_35"
    INDEX 01 00:34:31
  TRACK 36 AUDIO
    TITLE "Step1_Track03_36"
    INDEX 01 00:34:70
  TRACK 37 AUDIO
    TITLE "Step1_Track03_37"
    INDEX 01 00:35:67
  TRACK 38 AUDIO
    TITLE "Step1_Track03_38"
    INDEX 01 00:36:04
  TRACK 39 AUDIO
    TITLE "Step1_Track03_39"
    INDEX 01 00:39:10
  TRACK 40 AUDIO
    TITLE "Step1_Track03_40"
    INDEX 01 00:39:46
  TRACK 41 AUDIO
    TITLE "Step1_Track03_41"
    INDEX 01 00:40:41
  TRACK 42 AUDIO
    TITLE "Step1_Track03_42"
    INDEX 01 00:40:53
  TRACK 43 AUDIO
    TITLE "Step1_Track03_43"
    INDEX 01 00:42:38
